<svg xmlns="http://www.w3.org/2000/svg" xmlns:xlink="http://www.w3.org/1999/xlink" viewBox="0 0 200 200" width="200" height="200">
    <title>Rosario Sabores</title>
    <defs>
        Copyright 2026 - Rosario Sabores.
    </defs>

    <g>
        <polygon
            fill="#2e2e07"
            points="0 200 0 0 200 0 200 200
            195 40 190 200
            185 40 180 200
            175 40 170 200
            165 40 160 200
            155 40 150 200
            145 40 140 200
            135 40 130 200
            125 40 120 200
            115 40 110 200
            105 40 100 200
            95 40 90 200
            85 40 80 200
            75 40 70 200
            65 40 60 200
            55 40 50 200
            45 40 40 200
            35 40 30 200
            25 40 20 200
            15 40 10 200
            5 40"
        />
    </g>

</svg>