<svg xmlns="http://www.w3.org/2000/svg" xmlns:xlink="http://www.w3.org/1999/xlink" viewBox="0 0 200 100" width="200" height="100">
    <title>Rosario Sabores</title>
    <defs>
        Copyright 2026 - Rosario Sabores.
    </defs>

    <polygon fill="#c3bcb3" points="0 0 200 0 200 100 0 100"/>
    <path
    fill="#c3bcb3"
    stroke="#2e2e07"
    d="M 5 5
    L 195 5
    L 195 95
    L 5 95
    Z"
    />
    <g>
        <path
        stroke="#5A4147"
        stroke-width="1"
        fill="#6B4C4A"
        d="
        M 95 10 L 105 10 L 106 11
        L 106 14 L 105 15
        L 95 15 L 94 14
        L 94 14 94 11 Z
        "
        />
        <path
        stroke="#5A4147"
        stroke-width="1"
        fill="#B08E82"
        d="
        M 105 15
        C 105 19 108 18 108 20
        L 108 40
        C 105 42 95 42 92 40
        L 92 20
        C 92 18 95 19 95 15 Z"
        />
        <path
        fill="#844F47"
        d="M 94 39
        C 97 40 103 40 106 39
        L 106 21
        C 106 19 94 19 94 21"
        />
    </g>
    <g>
        <path
        stroke="#8D5E54"
        fill="#AD7C6B"
        d="M 116 18 L 115 14 L 125 14 L 124 18"
        />
        <path
        stroke="#654342"
        fill="#B09687"
        d="
        M 115 18 L 125 18
        C 126 18 126 20 125 20
        C 122 23 128 21 128 27
        L 128 38
        C 128 42 112 42 112 38
        L 112 27
        C 112 21 118 23 115 20
        C 114 20 114 18 115 18"
        />
    </g>
    <g>
        <path
        stroke="#6C4D55"
        fill="#9E6F67"
        d="
        M 66 20
        C 74 15 74 15 82 20
        C 78 25 70 25 66 20
        "
        />
        <path
        stroke="#6C4D55"
        fill="#B38979"
        d="
        M 70 28
        C 61 29 61 18 66 20
        C 70 24 78 24 82 20
        C 87 18 87 29 78 28
        
        M 83 27
        C 87 30 83 38 85 40
        C 83 42 83 38 77 40

        C 75 41 73 41 71 40

        C 65 38 65 42 63 40
        C 65 38 61 30 65 27"
        />
    </g>
    <g>
        <path
        stroke="#3E4C30"
        fill="none"
        d="
        M 135 40
        C 137 35 140 32 145 30
        M 135 40
        C 140 30 138 27 137 25
        M 135 40
        C 143 24 143 26 142 20
        M 135 40
        C 143 24 143 24 147 22
        "
        />
        <path
        stroke="#3E4C30"
        fill="#3E4C30"
        d="
        M 145 30
        C 147 26 147 26 155 26 
        C 149 31 149 31 145 30
        M 137 25
        C 138 22 138 22 132 18
        C 134 24 134 24 137 25
        M 142 20
        C 142 14 142 14 138 10
        C 138 17 139 17 142 20
        M 147 22
        C 148 18 148 18 155 18
        C 150 23 150 23 147 22
        "
        />
    </g>
    <g>
        <path
        stroke="#3E4C30"
        fill="none"
        d="
        M 30 70
        C 25 62 25 58 35 50
        M 30 70
        C 21 59 32 52 22 45
        M 30 70
        C 20 59 34 57 30 35
        "
        />
        <path
        stroke="#3E4C30"
        fill="#3E4C30"
        d="
        M 35 50
        C 37 43 37 43 45 40
        C 41 50 39 50 35 50
        M 22 45
        C 18 47 15 42 13 37
        C 17 38 22 39 22 45
        M 30 35
        C 26 33 25 30 27 23
        C 33 29 32 32 30 35
        "
        />
    </g>
    <g>
        <path
        stroke="#5C3538"
        fill="#8D5D5B"
        d="
        M 160 60
        C 160 55 162 55 165 55
        C 165 60 162 60 160 60 Z
        M 165 62
        C 165 58 170 58 171 60
        C 170 63 167 63 165 62 Z
        M 162 65
        C 165 64 167 64 169 66
        C 166 67 165 67 162 65 Z
        "
        />
    </g>
    <text x="100" y="75" font-family="'Caveat Brush', cursive" text-anchor="middle" font-size="30">Tilcara</text>

</svg>